# xmcd CD database file
#
# Track frame offsets:
#	150
#	17994
#	37756
#	56302
#	71433
#	105099
#	129702
#	149704
#	170413
#	187658
#	211775
#	231854
#
# Disc length: 3322 seconds
#
# Revision: 1
# Processed by: cddbd v1.5.2PL0 Copyright (c) Steve Scherf et al.
# Submitted via: CDex 1.70beta2
#
DISCID=980cf80c
DTITLE=Eric Gales - Crystal Vision
DYEAR=2005
DGENRE=Blues
TTITLE0=Retribution
TTITLE1=Are You My Friend?
TTITLE2=I Got Me A Woman
TTITLE3=I Don't Want You Hangin' Around
TTITLE4=Freedom From My Demons
TTITLE5=Trouble
TTITLE6=Crystal Vision
TTITLE7=Hush
TTITLE8=Me And My Guitar
TTITLE9=Plastic Girl
TTITLE10=Old School
TTITLE11=That's Just How It Is
EXTD=YEAR: 2005
EXTT0=
EXTT1=
EXTT2=
EXTT3=
EXTT4=
EXTT5=
EXTT6=
EXTT7=
EXTT8=
EXTT9=
EXTT10=
EXTT11=
PLAYORDER=
